<?xml version="1.0" standalone="no"?>
<!DOCTYPE svg PUBLIC "-//W3C//DTD SVG 20010904//EN"
 "http://www.w3.org/TR/2001/REC-SVG-20010904/DTD/svg10.dtd">
<svg version="1.0" xmlns="http://www.w3.org/2000/svg"
 width="700.000000pt" height="700.000000pt" viewBox="0 0 700.000000 700.000000"
 preserveAspectRatio="xMidYMid meet">
<metadata>
Created by potrace 1.11, written by Peter Selinger 2001-2013
</metadata>
<g transform="translate(0.000000,700.000000) scale(0.100000,-0.100000)"
fill="#000000" stroke="none">
<path d="M865 6990 c-2 -3 -6 -30 -9 -61 -20 -188 -84 -344 -195 -476 -53 -63
-149 -149 -197 -176 -81 -46 -111 -59 -177 -82 -41 -13 -92 -28 -113 -31 -22
-3 -42 -8 -45 -9 -3 -2 -30 -5 -61 -6 l-56 -2 0 -319 0 -318 38 0 c49 0 170
-23 235 -45 268 -90 476 -318 547 -599 21 -82 28 -246 15 -331 -8 -55 -61
-213 -85 -257 -11 -19 -26 -46 -34 -59 -7 -13 -15 -26 -18 -29 -3 -3 -16 -18
-28 -35 -39 -51 -115 -126 -167 -165 -128 -96 -326 -166 -482 -169 l-22 -1 1
-322 0 -323 31 -1 c347 -6 670 -255 776 -599 109 -353 -37 -750 -348 -950 -63
-41 -241 -122 -241 -110 0 2 -15 -1 -32 -6 -18 -5 -62 -12 -98 -15 -36 -3 -70
-7 -77 -9 -8 -3 -11 -90 -11 -322 l0 -318 45 -3 c70 -4 192 -31 258 -58 309
-126 510 -411 530 -749 l2 -30 320 -3 320 -2 6 83 c4 46 13 104 21 130 8 26
12 47 11 47 -9 0 58 148 92 203 43 71 154 192 215 233 24 16 45 31 48 35 9 10
154 77 200 92 131 43 337 47 475 7 78 -22 198 -78 263 -122 42 -29 140 -122
175 -167 71 -90 145 -247 161 -341 4 -25 10 -56 12 -70 2 -14 6 -47 7 -75 l3
-50 320 -3 321 -2 6 82 c4 46 8 92 11 103 29 137 102 287 186 379 73 81 87 93
150 138 89 62 215 122 275 129 6 1 21 5 33 10 44 17 216 22 303 9 401 -58 713
-406 721 -803 l1 -47 321 2 321 3 6 72 c9 94 26 162 60 243 39 92 53 120 62
120 4 0 7 5 7 11 0 19 105 143 162 191 96 82 260 164 362 182 65 12 121 19
155 20 l35 1 1 310 c1 171 0 315 -2 320 -2 6 -25 11 -52 13 -157 7 -346 79
-471 181 -213 172 -326 420 -316 693 9 251 113 458 316 627 119 99 324 180
460 181 25 0 50 4 55 8 11 8 14 626 3 637 -4 4 -31 9 -60 10 -49 4 -75 7 -136
19 -72 15 -210 79 -287 134 -338 241 -453 712 -262 1071 88 165 240 313 392
380 17 7 37 17 45 21 45 22 151 46 245 56 33 4 62 8 65 11 6 6 6 633 0 634 -3
1 -18 3 -35 5 -234 26 -392 95 -543 236 -27 26 -60 62 -73 80 -13 18 -31 42
-41 52 -63 69 -145 310 -147 434 l-1 42 -317 0 -318 0 -2 -54 c-10 -235 -144
-483 -340 -628 -100 -74 -233 -130 -358 -153 -112 -21 -283 -9 -395 26 -284
90 -519 350 -571 634 -6 33 -13 67 -14 75 -2 8 -4 33 -4 55 l-1 40 -320 1
c-281 0 -320 -2 -321 -16 -4 -109 -18 -199 -45 -279 -93 -279 -308 -479 -599
-557 -105 -28 -313 -26 -418 4 -95 27 -199 78 -283 137 -84 60 -188 176 -220
245 -4 8 -15 27 -25 41 -25 36 -78 196 -86 260 -3 30 -7 78 -7 106 -1 29 -5
53 -11 54 -39 4 -628 3 -630 -1z"/>
</g>
</svg>
