<?xml version="1.0" encoding="utf-8"?>
<!-- Generator: Adobe Illustrator 25.2.0, SVG Export Plug-In . SVG Version: 6.00 Build 0)  -->
<svg version="1.1" id="Ebene_1" xmlns="http://www.w3.org/2000/svg" xmlns:xlink="http://www.w3.org/1999/xlink" x="0px" y="0px"
	 viewBox="0 0 203.5 366.4" style="enable-background:new 0 0 203.5 366.4;" xml:space="preserve">
<style type="text/css">
	.st0{fill:#FFEB00;}
</style>
<g id="Ebene_2_1_">
	<g id="Ebene_1-2">
		<path class="st0" d="M193.3,0l-5,0c0,5.6-4.6,10.2-10.2,10.2S167.9,5.6,167.9,0l-5.1,0c0.2,5.6-4.2,10.3-9.9,10.5
			s-10.3-4.2-10.5-9.9c0-0.2,0-0.4,0-0.6l-5.1,0c0.2,5.6-4.2,10.3-9.9,10.5c-5.7,0.2-10.3-4.2-10.5-9.9c0-0.2,0-0.4,0-0.6l-5,0
			c0,5.6-4.6,10.2-10.2,10.2S91.5,5.6,91.5,0l0,0l-5,0c0,5.6-4.6,10.2-10.2,10.2S66.1,5.6,66.1,0l-5,0c0.2,5.6-4.2,10.3-9.9,10.5
			S40.9,6.3,40.7,0.6c0-0.2,0-0.4,0-0.6l-5,0c0.2,5.6-4.2,10.3-9.9,10.5S15.5,6.3,15.3,0.6c0-0.2,0-0.4,0-0.6l-5.1,0
			c0,2.7-1.1,5.3-3,7.2c-1.9,1.9-4.5,3-7.2,3L0,18c5.6,0,10.2,4.6,10.2,10.2S5.6,38.4,0,38.4l0,7.8c5.6,0,10.2,4.6,10.2,10.2
			S5.7,66.5,0.1,66.5v7.9c5.6,0,10.2,4.6,10.2,10.2l0,0c0,5.6-4.6,10.2-10.2,10.2v7.8c5.6,0,10.2,4.6,10.2,10.2
			c0,5.6-4.6,10.2-10.2,10.2l0,7.8c5.6,0,10.2,4.6,10.2,10.2s-4.6,10.1-10.2,10.1v7.8c5.6,0,10.2,4.6,10.2,10.2l0,0
			c0,5.6-4.6,10.2-10.2,10.2v7.8c5.6,0,10.2,4.6,10.2,10.2l0,0c0,5.6-4.6,10.2-10.2,10.2l0,0v7.8c5.6,0,10.2,4.6,10.2,10.2l0,0
			c0,5.6-4.6,10.2-10.2,10.2v7.8c5.6,0,10.2,4.6,10.2,10.2c0,5.6-4.6,10.2-10.2,10.2l0,0v7.8c5.6,0,10.2,4.6,10.2,10.2
			c0,5.6-4.6,10.2-10.2,10.2l0,7.8c5.6,0,10.2,4.6,10.2,10.2s-4.6,10.2-10.2,10.2v7.8c5.6,0,10.2,4.6,10.2,10.2
			c0,5.5-4.6,10.1-10.2,10.1l0,0v7.8c2.7,0,5.3,1.1,7.2,3c1.9,1.9,3,4.5,3,7.2h5.1c0-5.6,4.6-10.2,10.2-10.2l0,0
			c5.6,0,10.2,4.6,10.2,10.2h5.1c0-5.6,4.6-10.2,10.2-10.2c5.5,0,10,4.6,10,10.2h5.1c0-5.6,4.6-10.2,10.2-10.2s10.2,4.6,10.2,10.2h5
			c0-5.6,4.6-10.2,10.2-10.2s10.2,4.6,10.2,10.2h5c0-5.6,4.6-10.2,10.2-10.2l0,0c5.6,0,10.2,4.5,10.2,10.1l0,0h5.1
			c0-5.6,4.6-10.2,10.2-10.2c5.6,0,10.2,4.6,10.2,10.2l0,0h5.1c0-5.6,4.6-10.2,10.2-10.2s10.1,4.7,10.1,10.3h5c0-2.7,1.1-5.3,3-7.2
			c1.9-1.9,4.5-3,7.2-3v-7.8c-5.6,0.2-10.3-4.2-10.5-9.9c-0.2-5.7,4.2-10.3,9.9-10.5c0.2,0,0.4,0,0.6,0v-7.8
			c-5.6,0-10.2-4.6-10.2-10.2s4.6-10.2,10.2-10.2V292c-5.6,0-10.2-4.6-10.2-10.2c0-5.6,4.6-10.2,10.2-10.2v-7.8
			c-5.6,0.2-10.3-4.2-10.5-9.9c-0.2-5.7,4.2-10.3,9.9-10.5c0.2,0,0.4,0,0.6,0v-7.8c-5.6,0-10.2-4.6-10.2-10.2s4.6-10.2,10.2-10.2
			l0,0v-7.8c-5.6,0-10.2-4.6-10.2-10.2s4.6-10.2,10.2-10.2l0,0v-7.8c-5.6,0.2-10.3-4.2-10.5-9.9s4.2-10.3,9.9-10.5
			c0.2,0,0.4,0,0.6,0V151c-5.6,0-10.2-4.6-10.2-10.2s4.6-10.2,10.2-10.2l0,0v-7.8c-5.6,0-10.2-4.6-10.2-10.2
			c0-5.6,4.6-10.2,10.2-10.2l0,0v-7.8c-5.6,0.2-10.3-4.2-10.5-9.9s4.2-10.3,9.9-10.5c0.2,0,0.4,0,0.6,0v-7.8
			c-5.6,0-10.2-4.6-10.2-10.2S197.9,46,203.5,46l0,0v-7.8c-5.6,0.2-10.3-4.2-10.5-9.9s4.2-10.3,9.9-10.5c0.2,0,0.4,0,0.6,0V10
			C197.9,10.2,193.3,5.6,193.3,0L193.3,0L193.3,0z"/>
	</g>
</g>
</svg>
